<?xml version="1.0" encoding="utf-8"?>
<!-- Generator: Adobe Illustrator 25.0.0, SVG Export Plug-In . SVG Version: 6.00 Build 0)  -->
<svg version="1.1" id="Layer_1" xmlns="http://www.w3.org/2000/svg" xmlns:xlink="http://www.w3.org/1999/xlink" x="0px" y="0px"
	 viewBox="0 0 1280 860" style="enable-background:new 0 0 1280 860;" xml:space="preserve">
<style type="text/css">
	.st0{fill:#B7B833;stroke:#FFFFFF;stroke-width:0.1;stroke-miterlimit:1;}
</style>
<g transform="translate(0.000000,1280.000000) scale(0.100000,-0.100000)">
	<path class="st0" d="M14.2,12612.3c16-25,42-53,59-63c24-13,32-27,37-60c4-23,17-59,28-80l22-39l-22-16c-11-9-28-32-37-50
		c-10-18-26-42-37-53c-27-27-20-43,19-47c18-2,32-9,32-16s12-26,26-41c25-27,26-32,19-102c-6-70-5-76,24-128c27-48,31-64,31-133
		c0-87-9-106-60-131c-24-11-37-27-47-55c-7-22-20-47-28-56c-35-38,4-71,59-50c18,6,34,6,51-2c23-10,25-17,25-77c0-54-5-73-25-103
		c-43-63-56-179-25-228c8-13,11-12,23,4c20,28,27-450,32-2179c2-765,6-1752,10-2195l6-805l-25,30c-14,16-27,27-29,25
		c-14-17-27-83-27-143c0-64,3-73,36-119c20-27,40-64,44-83l8-35h-79c-91,0-93-3-53-74c27-48,75-91,109-98c16-3,19-10,17-38
		c-3-26-14-44-44-69c-46-39-68-84-68-135v-35l42,24c24,14,51,25,60,25c23,0,23-33,1-70c-15-26-15-32,0-72c12-31,14-60,10-106
		c-5-58-4-65,20-90c25-26,26-29,12-56c-22-43-18-61,17-77c45-20,48-39,6-39c-27,0-37-6-52-33c-11-17-20-44-20-59c-1-22-9-32-36-45
		c-44-22-47-41-19-98c36-71,74-105,120-105c26,0,46-7,59-20c34-34,77-26,150,29l65,49l10-51c19-91,54-124,145-133c70-8,77,3,47,70
		c-14,31-23,56-20,56s21-14,41-31c38-34,41-34,158-6c40,9,78,27,109,50c47,36,49,37,140,37h93l6-37c4-21,9-55,12-76c4-20,8-37,11-37
		c22,0,67,39,89,78c15,26,29,48,30,50s19-4,39-12c21-9,64-16,96-16c54,0,61,2,71,25c13,28,38,32,71,10c12-8,60-17,106-21
		c74-6,85-5,97,11c13,17,40,18,596,11c321-3,853-11,1183-16s697-7,815-5c118,3,845,10,1615,15c770,6,1643,14,1940,20
		c297,5,1185,12,1973,15l1434,7l-12-21c-10-19-7-23,24-36c66-28,128-14,187,42c34,32,100,30,109-3c3-11,18-36,34-55l29-34l16,23
		c37,53,74,92,87,92c8,0,23-9,34-20c16-16,28-19,60-14c31,5,44,2,66-15c31-25,76-27,94-6c7,8,23,15,36,15s33,9,44,20
		c23,23,40,19,40-11c0-16,7-19,54-19c41,0,68-7,111-30c31-16,65-30,75-30s32-8,49-17c42-24,54-9,59,72c4,53,1,70-13,86
		c-18,18-17,20,5,44c27,29,51,143,43,204c-3,24,1,49,11,69c21,40,21,81,0,89c-12,4-14,14-10,36c5,23,1,36-15,53l-22,23l32,36
		c32,37,38,68,25,134c-5,23-18,37-53,57c-25,14-58,26-74,26c-25-1-27,2-27,44c0,41,2,45,20,39c12-4,27-2,35,5s27,9,50,4
		c36-6,37-6,30,17c-4,13-9,35-10,49c-1,15-12,37-23,48c-12,12-22,26-22,31s-12,12-27,16c-26,6-26,7-7,18c60,35,113,83,119,106
		c4,14,18,36,33,48c44,35,19,47-98,47h-100v82c0,77,1,82,23,88c12,3,37,20,55,39c30,31,33,41,38,112c3,43,3,89-1,102l-6,25l-42-38
		l-42-39l-8,260c-4,143-9,1226-10,2407c-2,2041-1,2147,15,2142c14-4,18,0,18,21c0,14,7,42,15,62c17,41,20,159,4,169c-6,3-9,17-6,31
		c4,20-2,26-29,38l-34,14v70c0,65,9,87,25,61c4-6,15-8,26-5c10,3,39-3,64-14c43-19,45-19,54-2c12,22-5,75-36,115c-13,16-23,31-23,35
		c0,3-23,17-51,30l-51,23l7,82c4,49,13,88,22,98c10,11,13,26,8,46c-5,25-2,33,24,52c22,15,31,30,31,50c0,21,8,33,34,48
		c40,24,40,49-1,93l-23,26l25,11c14,6,25,19,25,27c0,31-29,72-60,85c-28,12-30,16-30,66c0,42-5,58-20,71c-11,10-20,23-20,30
		s-4,13-9,13c-4,0,2,21,15,48c12,26,25,63,29,83c6,33,4,39-26,60l-32,23l32,26c41,35,71,94,71,141v37l-63-4c-108-8-125-13-152-45
		c-20-25-31-30-50-25c-16,4-35,0-50-10c-24-15-27-15-44,0c-25,23-88,21-100-3c-7-13-18-17-36-13c-15,2-33-2-43-11c-9-8-35-17-57-20
		s-55-9-73-13c-27-5-31-4-26,9c9,25-30,10-62-24c-15-16-34-29-41-29s-19-11-25-25s-19-25-30-25c-27,0-22,12,17,39c34,23,35,25,34,90
		c-1,36-4,76-7,89c-7,22-10,20-73-33c-37-30-69-61-73-70c-11-29-37-15-56,29c-20,48-40,59-134,72c-46,6-48,6-37-14c6-11,11-40,11-63
		v-42l-707,7c-1504,15-4894,24-5798,16c-517-5-1483-10-2148-11c-1166-2-1208-2-1221,16c-21,29-113,31-213,6c-105-27-112-27-80,7
		c27,28,51,102,29,88c-6-3-13-2-16,3c-4,5,10,19,29,31s35,26,35,31c0,16-142-2-185-24c-81-39-130-110-123-178c2-20,0-35-4-33
		c-5,3-8,21-8,40c0,45-31,86-102,135c-68,46-122,54-113,17c15-67,25-114,25-122c0-11-67,2-103,21c-21,10-32,12-40,4s-18-4-37,14
		c-18,17-42,26-82,31c-53,6-58,5-80-21c-21-23-28-26-61-20c-28,5-42,15-53,36c-13,27-19,29-69,29c-39,0-55,4-55,13c0,21-35,48-74,57
		c-33,7-38,5-57-21c-12-17-24-42-28-56c-7-26-10-27-79-27c-39-1-76-6-81-11C-10.8,12660.3-4.8,12642.3,14.2,12612.3z M131.2,12309.3
		c3-3,4-12,1-19c-3-8-6-5-6,6C125.2,12307.3,128.2,12313.3,131.2,12309.3z M181.2,11159.3c3-3,4-12,1-19c-3-8-6-5-6,6
		C175.2,11157.3,178.2,11163.3,181.2,11159.3z M182.2,12147.3c3-11,10-27,17-35c10-13,9-13-7-1c-9,7-16,23-16,35
		C177.2,12166.3,178.2,12166.3,182.2,12147.3z M199.2,5892.3c8-8,17-26,20-40c5-19,2-16-13,10
		C183.2,5905.3,181.2,5910.3,199.2,5892.3z M188.2,11251.3c1-2,11-15,22-28l20-24l-23,12c-12,6-22,19-22,28
		S186.2,11253.3,188.2,11251.3z M192.2,12020.3c2-10,2-28,0-40c-2-13-4-5-4,17C187.2,12019.3,189.2,12029.3,192.2,12020.3z
		 M209.2,11932.3c2,0,10-8,17-17c13-16,12-17-4-4S201.2,11932.3,209.2,11932.3z M225.2,11297.3c5-3,10-12,10-18c0-7-4-6-10,3
		C213.2,11301.3,213.2,11305.3,225.2,11297.3z M268.2,5511.3c1-2,9-13,17-24c14-19,14-19-3-6c-9,7-17,18-17,24
		S266.2,5513.3,268.2,5511.3z M272.2,11755.3c2-13,2-35,0-50c-2-16-4-5-4,22C268.2,11755.3,270.2,11767.3,272.2,11755.3z
		 M422.2,7355.3c2-7,2-21,0-30c-3-10-5-4-5,12C417.2,7354.3,419.2,7361.3,422.2,7355.3z M422.2,7570.3c2-32,2-84,0-115
		c-2-32-3-6-3,57S420.2,7601.3,422.2,7570.3z M432.2,6780.3c2-10,2-26,0-35c-3-10-5-2-5,17S429.2,6789.3,432.2,6780.3z
		 M452.2,11697.3c10-4,51-9,90-12c62-5,73-3,79,11c4,10,0,22-9,29c-8,7-17,21-19,32s-19,28-41,38c-20,10-37,23-37,28s-18,9-40,9h-40
		v44c0,42,1,44,37,50c62,10,65,15,65,105s-5,84,78,82c25-1,52,3,60,9c13,8,13,13-3,41c-9,17-17,36-17,42s-12,24-27,39l-27,28l30,2
		c61,3,140,8,167,10c25,3,30-2,42-34c22-66,41-86,100-104c70-22,78-15,69,59c-5,44-14,65-39,94c-28,33-38,38-76,38c-25,0-44,5-46,13
		c-4,9,20,12,96,12c88,0,102-2,107-17c19-60,31-76,68-98c55-32,119-47,161-39c40,7,42,16,15,75c-11,24-20,49-20,55
		c0,14,3544,29,6075,26c2076-3,4033-19,4052-34c7-6,40-5,88,1c113,16,108,17,89-26c-30-69-29-73,4-73c36,0,50,15,26,28
		c-15,8-15,10,0,15c11,4,18-1,22-19c5-19,11-23,28-18c39,11,64,33,87,74l23,40h62c64,0,94-15,94-46c0-26,47-64,78-64
		c17,0,45-12,67-30c46-37,108-42,125-10c7,13,21,20,41,20c27,0,29-2,19-20c-6-11-18-20-28-20c-9,0-36-13-59-29l-42-28l33-32
		c26-26,40-31,78-31h46l-5-59c-5-53-3-60,16-70c11-7,21-17,21-24c1-7,9-30,20-52c27-55,25-62-20-112c-23-24-38-47-36-52
		c3-5,22-12,41-15l35-7v-74v-75h-53c-43,0-63-6-99-30c-24-16-52-38-62-48c-21-24-11-33,57-56c38-13,57-14,87-6c22,6,42,15,45,20
		c10,17,25,11,25-10c0-14-7-20-23-20c-58,0-205-152-174-179c25-20,94-24,137-7c22,9,44,16,49,16c22,0,31-3168,15-4970l-6-654l-27,29
		c-35,40-122,95-149,95c-17,0-22-6-22-26c0-32,44-122,82-168c24-30,36-36,67-36c48,0,58-20,67-137c8-115-8-196-47-235
		c-15-16-33-45-38-65c-9-33-7-43,17-83c51-85,49-101-11-76c-19,8-61,13-93,12c-48-1-60-5-62-20c-6-30,7-64,38-100c24-27,27-36,17-45
		c-10-8-27-5-65,9c-73,28-98,26-110-7c-6-16-17-37-25-48c-15-19-17-19-33-3c-17,16-17,19-1,36c23,25,21,67-5,113c-15,28-28,39-45,39
		c-13,0-23,6-23,14c0,7-8,16-18,20c-9,3-25,11-34,18c-25,18-32,5-32-65c1-82,22-123,78-147c59-25,64-37,20-49c-31-9-41-7-73,14
		c-24,16-63,27-120,35c-102,14-115,10-107-30l5-30h-112c-406,2-2819-10-3742-19c-611-6-1605-15-2210-21c-1041-10-1496-8-3460,16
		c-237,3-441,7-453,10c-23,5-23,6-8,29c18,27,22,75,6,75c-6,0-10,7-10,16c0,15-9,16-63,10c-85-9-148-47-160-99l-9-37h-100
		c-111,0-109-1-71,73c16,31,8,34-43,12c-24-10-42-11-59-5c-20,7-30,3-68-30l-45-40l-6,36c-12,64-69,98-82,49c-10-39-29-50-56-31
		c-32,23-47,20-54-10c-5-20-12-24-33-22c-15,2-25,9-23,16c12,59,21,159,17,174c-8,23-32,23-70-2c-17-11-34-20-39-20s-7,57-3,136
		l6,135l-43,20c-28,12-55,17-73,13c-28-5-31-3-37,26c-8,41-6,127,3,160c6,22,13,26,71,31c68,7,65,5,116,83c23,35,25,46,19,94
		c-4,31-10,64-14,75c-7,18-8,17-25-8c-10-15-42-38-72-51c-65-29-94-69-94-132c0-24-6-53-13-65c-11-20-13-17-18,33c-3,30-6,280-8,555
		c-1,275-6,1006-11,1625c-12,1421-13,3750-2,3750c5,0,17-9,27-20c38-42,64,34,46,136c-9,49-17,65-47,92c-42,36-42,54,0,21l28-22
		l71,29c87,35,94,52,38,90c-42,27-125,42-136,23c-4-5-15-14-26-19c-17-10-19-7-19,31C435.2,11698.3,438.2,11703.3,452.2,11697.3z
		 M650.2,4395.3c9-3,14-8,11-10c-3-3-9-2-15,2C630.2,4396.3,633.2,4402.3,650.2,4395.3z M719.2,4482.3c2,0,10-8,17-17
		c13-16,12-17-4-4S711.2,4482.3,719.2,4482.3z M779.2,4352.3c2,0,10-8,17-17c13-16,12-17-4-4S771.2,4352.3,779.2,4352.3z
		 M948.2,12692.3c2,0,16-15,33-32l29-33l-33,29C947.2,12684.3,940.2,12692.3,948.2,12692.3z M1129.2,4472.3c2,0,10-8,17-17
		c13-16,12-17-4-4S1121.2,4472.3,1129.2,4472.3z M1247.2,12499.3c18-2,4-4-32-4s-50,2-33,4
		C1200.2,12501.3,1230.2,12501.3,1247.2,12499.3z M1189.2,12332.3c2,0,10-8,17-17c13-16,12-17-4-4S1181.2,12332.3,1189.2,12332.3z
		 M1437.2,4499.3c7-3,2-5-12-5s-19,2-13,5C1419.2,4501.3,1431.2,4501.3,1437.2,4499.3z M1529.2,4432.3c2,0,10-8,17-17
		c13-16,12-17-4-4S1521.2,4432.3,1529.2,4432.3z M1607.2,4449.3c8-3,5-6-6-6c-11-1-17,2-13,5
		C1591.2,4451.3,1600.2,4452.3,1607.2,4449.3z M11759.2,12622.3c2,0,7-7,10-16c3-8,2-12-4-9
		C11755.2,12603.3,11751.2,12622.3,11759.2,12622.3z M11809.2,4392.3c2,0,10-8,17-17c13-16,12-17-4-4S11801.2,4392.3,11809.2,4392.3
		z M11832.2,4855.3c2-13,2-35,0-50c-2-16-4-5-4,22C11828.2,4855.3,11830.2,4867.3,11832.2,4855.3z M11842.2,4764.3c3-8,19-22,37-33
		c17-10,26-19,20-19c-17,0-64,40-63,53C11836.2,4773.3,11839.2,4772.3,11842.2,4764.3z M11861.2,12449.3c3-3,4-12,1-19c-3-8-6-5-6,6
		C11855.2,12447.3,11858.2,12453.3,11861.2,12449.3z M11921.2,4779.3c3-3,4-12,1-19c-3-8-6-5-6,6
		C11915.2,4777.3,11918.2,4783.3,11921.2,4779.3z M11959.2,12522.3c2,0,7-7,10-16c3-8,2-12-4-9
		C11955.2,12503.3,11951.2,12522.3,11959.2,12522.3z M12089.2,12452.3c2,0,10-8,17-17c13-16,12-17-4-4
		S12081.2,12452.3,12089.2,12452.3z M12208.2,5652.3c2,0,16-15,33-32l29-33l-33,29C12207.2,5644.3,12200.2,5652.3,12208.2,5652.3z
		 M12462.2,6180.3c2-32,2-84,0-115c-2-32-3-6-3,57S12460.2,6211.3,12462.2,6180.3z M12472.2,6395.3c2-13,2-33,0-45c-2-13-4-3-4,22
		S12470.2,6407.3,12472.2,6395.3z M12472.2,6755.3c2-18,2-48,0-65c-2-18-4-4-4,32S12470.2,6772.3,12472.2,6755.3z M12472.2,7995.3
		c2-83,2-223,0-310c-1-87-3-18-3,152C12469.2,8008.3,12471.2,8079.3,12472.2,7995.3z M12492.2,10900.3c2-43,2-113,0-155
		c-1-43-3-8-3,77S12491.2,10942.3,12492.2,10900.3z M12502.2,9245.3c2-182,2-484,0-670c-1-186-2-36-2,332
		C12500.2,9276.3,12501.2,9428.3,12502.2,9245.3z M12502.2,10185.3c2-46,2-120,0-165c-1-46-3-9-3,82
		S12501.2,10230.3,12502.2,10185.3z M12542.2,7280.3c2-86,2-230,0-320c-1-90-3-19-3,157S12541.2,7366.3,12542.2,7280.3z
		 M12542.2,7660.3c2-10,2-28,0-40c-2-13-4-5-4,17C12537.2,7659.3,12539.2,7669.3,12542.2,7660.3z M12572.2,6405.3c2-51,2-135,0-185
		c-1-51-3-10-3,92S12571.2,6455.3,12572.2,6405.3z"/>
</g>
</svg>
