<?xml version="1.0" encoding="utf-8"?>
<!-- Generator: Adobe Illustrator 25.0.0, SVG Export Plug-In . SVG Version: 6.00 Build 0)  -->
<svg version="1.1" id="Layer_1" xmlns="http://www.w3.org/2000/svg" xmlns:xlink="http://www.w3.org/1999/xlink" x="0px" y="0px"
	 viewBox="0 0 859 1280" style="enable-background:new 0 0 859 1280;" xml:space="preserve">
<style type="text/css">
	.st0{fill:#B7B833;stroke:#FFFFFF;stroke-miterlimit:10;}
</style>
<g transform="translate(0.000000,1280.000000) scale(0.100000,-0.100000)">
	<path class="st0" d="M8410,12771c-25-16-53-42-63-59c-13-24-27-32-60-37c-23-4-59-17-80-28l-39-22l-16,22c-9,11-32,28-50,37
		c-18,10-42,26-53,37c-27,27-43,20-47-19c-2-18-9-32-16-32s-26-12-41-26c-27-25-32-26-102-19c-70,6-76,5-128-24c-48-27-64-31-133-31
		c-87,0-106,9-131,60c-11,24-27,37-55,47c-22,7-47,20-56,28c-38,35-71-4-50-59c6-18,6-34-2-51c-10-23-17-25-77-25c-54,0-73,5-103,25
		c-63,43-179,56-228,25c-13-8-12-11,4-23c28-20-450-27-2179-32c-765-2-1752-6-2195-10l-805-6l30,25c16,14,27,27,25,29
		c-17,14-83,27-143,27c-64,0-73-3-119-36c-27-20-64-40-83-44l-35-8v79c0,91-3,93-74,53c-48-27-91-75-98-109c-3-16-10-19-38-17
		c-26,3-44,14-69,44c-39,46-84,68-135,68h-35l24-42c14-24,25-51,25-60c0-23-33-23-70-1c-26,15-32,15-72,0c-31-12-60-14-106-10
		c-58,5-65,4-90-20c-26-25-29-26-56-12c-43,22-61,18-77-17c-20-45-39-48-39-6c0,27-6,37-33,52c-17,11-44,20-59,20c-22,1-32,9-45,36
		c-22,44-41,47-98,19c-71-36-105-74-105-120c0-26-7-46-20-59c-34-34-26-77,29-150l49-65l-51-10c-91-19-124-54-133-145
		c-8-70,3-77,70-47c31,14,56,23,56,20s-14-21-31-41c-34-38-34-41-6-158c9-40,27-78,50-109c36-47,37-49,37-140v-93l-37-6
		c-21-4-55-9-76-12c-20-4-37-8-37-11c0-22,39-67,78-89c26-15,48-29,50-30s-4-19-12-39c-9-21-16-64-16-96c0-54,2-61,25-71
		c28-13,32-38,10-71c-8-12-17-60-21-106c-6-74-5-85,11-97c17-13,18-40,11-596c-3-321-11-853-16-1183s-7-697-5-815
		c3-118,10-845,15-1615c6-770,14-1643,20-1940c5-297,12-1185,15-1973l7-1434l-21,12c-19,10-23,7-36-24c-28-66-14-128,42-187
		c32-34,30-100-3-109c-11-3-36-18-55-34l-34-29l23-16c53-37,92-74,92-87c0-8-9-23-20-34c-16-16-19-28-14-60c5-31,2-44-15-66
		c-25-31-27-76-6-94c8-7,15-23,15-36s9-33,20-44c23-23,19-40-11-40c-16,0-19-7-19-54c0-41-7-68-30-111c-16-31-30-65-30-75
		s-8-32-17-49c-24-42-9-54,72-59c53-4,70-1,86,13c18,18,20,17,44-5c29-27,143-51,204-43c24,3,49-1,69-11c40-21,81-21,89,0
		c4,12,14,14,36,10c23-5,36-1,53,15l23,22l36-32c37-32,68-38,134-25c23,5,37,18,57,53c14,25,26,58,26,74c-1,25,2,27,44,27
		c41,0,45-2,39-20c-4-12-2-27,5-35s9-27,4-50c-6-36-6-37,17-30c13,4,35,9,49,10c15,1,37,12,48,23c12,12,26,22,31,22s12,12,16,27
		c6,26,7,26,18,7c35-60,83-113,106-119c14-4,36-18,48-33c35-44,47-19,47,98v100h82c77,0,82-1,88-23c3-12,20-37,39-55
		c31-30,41-33,112-38c43-3,89-3,102,1l25,6l-38,42l-39,42l260,8c143,4,1226,9,2407,10c2041,2,2147,1,2142-15c-4-14,0-18,21-18
		c14,0,42-7,62-15c41-17,159-20,169-4c3,6,17,9,31,6c20-4,26,2,38,29l14,34h70c65,0,87-9,61-25c-6-4-8-15-5-26c3-10-3-39-14-64
		c-19-43-19-45-2-54c22-12,75,5,115,36c16,13,31,23,35,23c3,0,17,23,30,51l23,51l82-7c49-4,88-13,98-22c11-10,26-13,46-8
		c25,5,33,2,52-24c15-22,30-31,50-31c21,0,33-8,48-34c24-40,49-40,93,1l26,23l11-25c6-14,19-25,27-25c31,0,72,29,85,60
		c12,28,16,30,66,30c42,0,58,5,71,20c10,11,23,20,30,20s13,4,13,9c0,4,21-2,48-15c26-12,63-25,83-29c33-6,39-4,60,26l23,32l26-32
		c35-41,94-71,141-71h37l-4,63c-8,108-13,125-45,152c-25,20-30,31-25,50c4,16,0,35-10,50c-15,24-15,27,0,44c23,25,21,88-3,100
		c-13,7-17,18-13,36c2,15-2,33-11,43c-8,9-17,35-20,57s-9,55-13,73c-5,27-4,31,9,26c25-9,10,30-24,62c-16,15-29,34-29,41
		s-11,19-25,25s-25,19-25,30c0,27,12,22,39-17c23-34,25-35,90-34c36,1,76,4,89,7c22,7,20,10-33,73c-30,37-61,69-70,73
		c-29,11-15,37,29,56c48,20,59,40,72,134c6,46,6,48-14,37c-11-6-40-11-63-11h-42l7,707c15,1504,24,4894,16,5798
		c-5,517-10,1483-11,2148c-2,1166-2,1208,16,1221c29,21,31,113,6,213c-27,105-27,112,7,80c28-27,102-51,88-29c-3,6-2,13,3,16
		c5,4,19-10,31-29s26-35,31-35c16,0-2,142-24,185c-39,81-110,130-178,123c-20-2-35,0-33,4c3,5,21,8,40,8c45,0,86,31,135,102
		c46,68,54,122,17,113c-67-15-114-25-122-25c-11,0,2,67,21,103c10,21,12,32,4,40s-4,18,14,37c17,18,26,42,31,82c6,53,5,58-21,80
		c-23,21-26,28-20,61c5,28,15,42,36,53c27,13,29,19,29,69c0,39,4,55,13,55c21,0,48,35,57,74c7,33,5,38-21,57c-17,12-42,24-56,28
		c-26,7-27,10-27,79c-1,39-6,76-11,81C8458,12796,8440,12790,8410,12771z M8107,12654c-3-3-12-4-19-1c-8,3-5,6,6,6
		C8105,12660,8111,12657,8107,12654z M6957,12604c-3-3-12-4-19-1c-8,3-5,6,6,6C6955,12610,6961,12607,6957,12604z M7945,12603
		c-11-3-27-10-35-17c-13-10-13-9-1,7c7,9,23,16,35,16C7964,12608,7964,12607,7945,12603z M1690,12586c-8-8-26-17-40-20
		c-19-5-16-2,10,13C1703,12602,1708,12604,1690,12586z M7049,12597c-2-1-15-11-28-22l-24-20l12,23c6,12,19,22,28,22
		S7051,12599,7049,12597z M7818,12593c-10-2-28-2-40,0c-13,2-5,4,17,4C7817,12598,7827,12596,7818,12593z M7730,12576
		c0-2-8-10-17-17c-16-13-17-12-4,4S7730,12584,7730,12576z M7095,12560c-3-5-12-10-18-10c-7,0-6,4,3,10
		C7099,12572,7103,12572,7095,12560z M1309,12517c-2-1-13-9-24-17c-19-14-19-14-6,3c7,9,18,17,24,17S1311,12519,1309,12517z
		 M7553,12513c-13-2-35-2-50,0c-16,2-5,4,22,4C7553,12517,7565,12515,7553,12513z M3153,12363c-7-2-21-2-30,0c-10,3-4,5,12,5
		C3152,12368,3159,12366,3153,12363z M3368,12363c-32-2-84-2-115,0c-32,2-6,3,57,3S3399,12365,3368,12363z M2578,12353
		c-10-2-26-2-35,0c-10,3-2,5,17,5S2587,12356,2578,12353z M7495,12333c-4-10-9-51-12-90c-5-62-3-73,11-79c10-4,22,0,29,9
		c7,8,21,17,32,19s28,19,38,41c10,20,23,37,28,37s9,18,9,40v40h44c42,0,44-1,50-37c10-62,15-65,105-65s84,5,82-78c-1-25,3-52,9-60
		c8-13,13-13,41,3c17,9,36,17,42,17s24,12,39,27l28,27l2-30c3-61,8-140,10-167c3-25-2-30-34-42c-66-22-86-41-104-100
		c-22-70-15-78,59-69c44,5,65,14,94,39c33,28,38,38,38,76c0,25,5,44,13,46c9,4,12-20,12-96c0-88-2-102-17-107c-60-19-76-31-98-68
		c-32-55-47-119-39-161c7-40,16-42,75-15c24,11,49,20,55,20c14,0,29-3544,26-6075c-3-2076-19-4033-34-4052c-6-7-5-40,1-88
		c16-113,17-108-26-89c-69,30-73,29-73-4c0-36,15-50,28-26c8,15,10,15,15,0c4-11-1-18-19-22c-19-5-23-11-18-28c11-39,33-64,74-87
		l40-23v-62c0-64-15-94-46-94c-26,0-64-47-64-78c0-17-12-45-30-67c-37-46-42-108-10-125c13-7,20-21,20-41c0-27-2-29-20-19
		c-11,6-20,18-20,28c0,9-13,36-29,59l-28,42l-32-33c-26-26-31-40-31-78v-46l-59,5c-53,5-60,3-70-16c-7-11-17-21-24-21
		c-7-1-30-9-52-20c-55-27-62-25-112,20c-24,23-47,38-52,36c-5-3-12-22-15-41l-7-35h-74h-75v53c0,43-6,63-30,99c-16,24-38,52-48,62
		c-24,21-33,11-56-57c-13-38-14-57-6-87c6-22,15-42,20-45c17-10,11-25-10-25c-14,0-20,7-20,23c0,58-152,205-179,174
		c-20-25-24-94-7-137c9-22,16-44,16-49c0-22-3168-31-4970-15l-654,6l29,27c40,35,95,122,95,149c0,17-6,22-26,22c-32,0-122-44-168-82
		c-30-24-36-36-36-67c0-48-20-58-137-67c-115-8-196,8-235,47c-16,15-45,33-65,38c-33,9-43,7-83-17c-85-51-101-49-76,11
		c8,19,13,61,12,93c-1,48-5,60-20,62c-30,6-64-7-100-38c-27-24-36-27-45-17c-8,10-5,27,9,65c28,73,26,98-7,110c-16,6-37,17-48,25
		c-19,15-19,17-3,33c16,17,19,17,36,1c25-23,67-21,113,5c28,15,39,28,39,45c0,13,6,23,14,23c7,0,16,8,20,18c3,9,11,25,18,34
		c18,25,5,32-65,32c-82-1-123-22-147-78c-25-59-37-64-49-20c-9,31-7,41,14,73c16,24,27,63,35,120c14,102,10,115-30,107l-30-5v112
		c2,406-10,2819-19,3742c-6,611-15,1605-21,2210c-10,1041-8,1496,16,3460c3,237,7,441,10,453c5,23,6,23,29,8c27-18,75-22,75-6
		c0,6,7,10,16,10c15,0,16,9,10,63c-9,85-47,148-99,160l-37,9v100c0,111-1,109,73,71c31-16,34-8,12,43c-10,24-11,42-5,59
		c7,20,3,30-30,68l-40,45l36,6c64,12,98,69,49,82c-39,10-50,29-31,56c23,32,20,47-10,54c-20,5-24,12-22,33c2,15,9,25,16,23
		c59-12,159-21,174-17c23,8,23,32-2,70c-11,17-20,34-20,39s57,7,136,3l135-6l20,43c12,28,17,55,13,73c-5,28-3,31,26,37
		c41,8,127,6,160-3c22-6,26-13,31-71c7-68,5-65,83-116c35-23,46-25,94-19c31,4,64,10,75,14c18,7,17,8-8,25c-15,10-38,42-51,72
		c-29,65-69,94-132,94c-24,0-53,6-65,13c-20,11-17,13,33,18c30,3,280,6,555,8c275,1,1006,6,1625,11c1421,12,3750,13,3750,2
		c0-5-9-17-20-27c-42-38,34-64,136-46c49,9,65,17,92,47c36,42,54,42,21,0l-22-28l29-71c35-87,52-94,90-38c27,42,42,125,23,136
		c-5,4-14,15-19,26c-10,17-7,19,31,19C7496,12350,7501,12347,7495,12333z M193,12135c-3-9-8-14-10-11c-3,3-2,9,2,15
		C194,12155,200,12152,193,12135z M280,12066c0-2-8-10-17-17c-16-13-17-12-4,4S280,12074,280,12066z M150,12006c0-2-8-10-17-17
		c-16-13-17-12-4,4S150,12014,150,12006z M8490,11837c0-2-15-16-32-33l-33-29l29,33C8482,11838,8490,11845,8490,11837z M270,11656
		c0-2-8-10-17-17c-16-13-17-12-4,4S270,11664,270,11656z M8297,11538c-2-18-4-4-4,32s2,50,4,33C8299,11585,8299,11555,8297,11538z
		 M8130,11596c0-2-8-10-17-17c-16-13-17-12-4,4S8130,11604,8130,11596z M297,11348c-3-7-5-2-5,12s2,19,5,13
		C299,11366,299,11354,297,11348z M230,11256c0-2-8-10-17-17c-16-13-17-12-4,4S230,11264,230,11256z M247,11178c-3-8-6-5-6,6
		c-1,11,2,17,5,13C249,11194,250,11185,247,11178z M8420,1026c0-2-7-7-16-10c-8-3-12-2-9,4C8401,1030,8420,1034,8420,1026z M190,976
		c0-2-8-10-17-17c-16-13-17-12-4,4S190,984,190,976z M653,953c-13-2-35-2-50,0c-16,2-5,4,22,4C653,957,665,955,653,953z M562,943
		c-8-3-22-19-33-37c-10-17-19-26-19-20c0,17,40,64,53,63C571,949,570,946,562,943z M8247,924c-3-3-12-4-19-1c-8,3-5,6,6,6
		C8245,930,8251,927,8247,924z M577,864c-3-3-12-4-19-1c-8,3-5,6,6,6C575,870,581,867,577,864z M8320,826c0-2-7-7-16-10
		c-8-3-12-2-9,4C8301,830,8320,834,8320,826z M8250,696c0-2-8-10-17-17c-16-13-17-12-4,4S8250,704,8250,696z M1450,577
		c0-2-15-16-32-33l-33-29l29,33C1442,578,1450,585,1450,577z M1978,323c-32-2-84-2-115,0c-32,2-6,3,57,3S2009,325,1978,323z
		 M2193,313c-13-2-33-2-45,0c-13,2-3,4,22,4S2205,315,2193,313z M2553,313c-18-2-48-2-65,0c-18,2-4,4,32,4S2570,315,2553,313z
		 M3793,313c-83-2-223-2-310,0c-87,1-18,3,152,3C3806,316,3877,314,3793,313z M6698,293c-43-2-113-2-155,0c-43,1-8,3,77,3
		S6740,294,6698,293z M5043,283c-182-2-484-2-670,0c-186,1-36,2,332,2C5074,285,5226,284,5043,283z M5983,283c-46-2-120-2-165,0
		c-46,1-9,3,82,3S6028,284,5983,283z M3078,243c-86-2-230-2-320,0c-90,1-19,3,157,3S3164,244,3078,243z M3458,243c-10-2-28-2-40,0
		c-13,2-5,4,17,4C3457,248,3467,246,3458,243z M2203,213c-51-2-135-2-185,0c-51,1-10,3,92,3S2253,214,2203,213z"/>
</g>
</svg>
